#!OML:ASF H:\Dans Jumps\Project 1\Capture day 1\Session 1\subject.ASF
:FULLY-SPECIFIED
:DEGREES
497
root 0.215447 17.8341 -2.02099 7.63616 0.744312 -1.13678
lowerback -2.17303 -0.749173 -0.159455
upperback 3.03872 -1.05983 1.68584
thorax 4.38643 -0.56257 1.76648
lowerneck -10.7909 0.630201 -1.57511
upperneck 39.5308 1.02546 0.888246
head 15.7772 0.312602 0.830791
rclavicle -8.15017e-015 1.23246e-014
rhumerus -26.2977 -17.6603 -79.8489
rradius 22.8036
rwrist 34.1418
rhand -20.4694 -26.3805
rfingers 7.12502
rthumb 5.88665 -56.2788
lclavicle -8.15017e-015 1.23246e-014
lhumerus -21.578 -7.7616 91.5626
lradius 20.912
lwrist 8.19463
lhand -25.83 -5.11639
lfingers 7.12502
lthumb 0.709898 24.8622
rfemur -14.9266 -2.97561 19.6624
rtibia 19.8796
rfoot -11.1461 -3.26022
rtoes 16.2492
lfemur -13.3865 6.63898 -17.6304
ltibia 15.568
lfoot -8.19337 0.548886
ltoes 5.92938
498
root 0.212884 17.8338 -2.02249 7.62795 0.71999 -1.14544
lowerback -2.17899 -0.740799 -0.159123
upperback 3.03411 -1.04866 1.68625
thorax 4.38465 -0.556985 1.76733
lowerneck -10.8024 0.636727 -1.58156
upperneck 39.577 1.02548 0.919248
head 15.8035 0.315349 0.846014
rclavicle -9.83984e-015 2.18663e-014
rhumerus -26.2411 -17.6041 -79.8897
rradius 22.8511
rwrist 34.0909
rhand -20.5003 -26.4226
rfingers 7.12502
rthumb 5.85682 -56.3216
lclavicle -9.83984e-015 2.18663e-014
lhumerus -21.4848 -7.77524 91.5258
lradius 21.006
lwrist 8.21749
lhand -25.8346 -5.10647
lfingers 7.12502
lthumb 0.705489 24.8721
rfemur -14.924 -2.95597 19.6776
rtibia 19.8778
rfoot -11.1499 -3.25324
rtoes 16.2532
lfemur -13.3783 6.63863 -17.609
ltibia 15.5687
lfoot -8.19471 0.578361
ltoes 5.92115
499
root 0.210628 17.8334 -2.02395 7.61618 0.702481 -1.14677
lowerback -2.18736 -0.736988 -0.164247
upperback 3.03246 -1.04336 1.68532
thorax 4.38759 -0.554509 1.76948
lowerneck -10.8047 0.643689 -1.58027
upperneck 39.6086 1.02929 0.935786
head 15.8202 0.31902 0.853947
rclavicle -2.68359e-015 1.11319e-014
rhumerus -26.1767 -17.5686 -79.9264
rradius 22.8866
rwrist 34.0446
rhand -20.5337 -26.4607
rfingers 7.12502
rthumb 5.82454 -56.3607
lclavicle -2.68359e-015 1.11319e-014
lhumerus -21.3802 -7.77036 91.483
lradius 21.074
lwrist 8.21847
lhand -25.8412 -5.09677
lfingers 7.12502
lthumb 0.699097 24.8818
rfemur -14.9161 -2.95552 19.6846
rtibia 19.876
rfoot -11.155 -3.2346
rtoes 16.2581
lfemur -13.3684 6.63607 -17.5964
ltibia 15.5733
lfoot -8.19937 0.602513
ltoes 5.91692
500
root 0.208271 17.833 -2.02549 7.60459 0.687996 -1.15334
lowerback -2.1948 -0.733677 -0.164261
upperback 3.02933 -1.03895 1.68497
thorax 4.3884 -0.552295 1.76931
lowerneck -10.7985 0.64917 -1.57298
upperneck 39.6352 1.03226 0.943906
head 15.8324 0.322154 0.856893
rclavicle -2.18663e-015 -1.98785e-016
rhumerus -26.1148 -17.5414 -79.9621
rradius 22.9195
rwrist 33.9931
rhand -20.5708 -26.4987
rfingers 7.12502
rthumb 5.78872 -56.3997
lclavicle -2.18663e-015 -1.98785e-016
lhumerus -21.2762 -7.7654 91.4369
lradius 21.1284
lwrist 8.21417
lhand -25.8475 -5.07614
lfingers 7.12502
lthumb 0.693002 24.9025
rfemur -14.9085 -2.95418 19.698
rtibia 19.8737
rfoot -11.1599 -3.21992
rtoes 16.2717
lfemur -13.3631 6.62977 -17.5775
ltibia 15.5834
lfoot -8.2042 0.628215
ltoes 5.90547
501
root 0.205888 17.8326 -2.02688 7.59106 0.67478 -1.16315
lowerback -2.20164 -0.730325 -0.160503
upperback 3.02642 -1.03462 1.68432
thorax 4.38904 -0.549999 1.76673
lowerneck -10.7865 0.652485 -1.56204
upperneck 39.6559 1.03278 0.946841
head 15.8403 0.324171 0.856427
rclavicle -4.02539e-015 -9.93923e-016
rhumerus -26.0545 -17.5244 -79.9968
rradius 22.9494
rwrist 33.9398
rhand -20.6059 -26.5292
rfingers 7.12502
rthumb 5.75483 -56.431
lclavicle -4.02539e-015 -9.93923e-016
lhumerus -21.1729 -7.76411 91.3888
lradius 21.1686
lwrist 8.21443
lhand -25.8641 -5.06025
lfingers 7.12502
lthumb 0.677037 24.9184
rfemur -14.8985 -2.95378 19.7152
rtibia 19.8719
rfoot -11.1659 -3.20515
rtoes 16.2913
lfemur -13.3575 6.62085 -17.5546
ltibia 15.5979
lfoot -8.21147 0.657335
ltoes 5.88566
502
root 0.20344 17.8321 -2.02829 7.57764 0.663218 -1.17568
lowerback -2.20794 -0.728112 -0.155628
upperback 3.02274 -1.0319 1.68489
thorax 4.38861 -0.548477 1.76469
lowerneck -10.77 0.656051 -1.54973
upperneck 39.672 1.03551 0.943849
head 15.8447 0.326559 0.853397
rclavicle 8.54774e-015 -3.18055e-015
rhumerus -25.9979 -17.4935 -80.0353
rradius 22.9842
rwrist 33.8688
rhand -20.6352 -26.5585
rfingers 7.12502
rthumb 5.7266 -56.4611
lclavicle 8.54774e-015 -3.18055e-015
lhumerus -21.0723 -7.75546 91.3392
lradius 21.1965
lwrist 8.21499
lhand -25.8877 -5.04968
lfingers 7.12502
lthumb 0.654215 24.9291
rfemur -14.8889 -2.95278 19.7358
rtibia 19.87
rfoot -11.1719 -3.19273
rtoes 16.31
lfemur -13.3553 6.60867 -17.5286
ltibia 15.6178
lfoot -8.21999 0.691168
ltoes 5.85034
503
root 0.200978 17.8315 -2.02972 7.56383 0.652499 -1.18785
lowerback -2.2137 -0.726919 -0.15277
upperback 3.02019 -1.03048 1.68558
thorax 4.38915 -0.547677 1.76382
lowerneck -10.7581 0.658784 -1.54028
upperneck 39.6854 1.03761 0.941414
head 15.8488 0.328339 0.851023
rclavicle 5.96354e-016 2.78299e-015
rhumerus -25.9406 -17.4583 -80.0762
rradius 23.0187
rwrist 33.7914
rhand -20.658 -26.5822
rfingers 7.12502
rthumb 5.70456 -56.4855
lclavicle 5.96354e-016 2.78299e-015
lhumerus -20.971 -7.73786 91.2864
lradius 21.2142
lwrist 8.21583
lhand -25.9084 -5.04391
lfingers 7.12502
lthumb 0.634183 24.9349
rfemur -14.88 -2.9518 19.7565
rtibia 19.87
rfoot -11.1779 -3.18232
rtoes 16.3202
lfemur -13.3543 6.59336 -17.503
ltibia 15.6402
lfoot -8.22844 0.729914
ltoes 5.80971
504
root 0.19857 17.8309 -2.03104 7.54922 0.641491 -1.19875
lowerback -2.21824 -0.726304 -0.152666
upperback 3.01735 -1.0297 1.68656
thorax 4.38876 -0.547292 1.76478
lowerneck -10.7478 0.660711 -1.53583
upperneck 39.6964 1.0393 0.940528
head 15.852 0.329417 0.850135
rclavicle -1.2921e-015 -4.57205e-015
rhumerus -25.888 -17.4087 -80.1195
rradius 23.0582
rwrist 33.7017
rhand -20.6733 -26.604
rfingers 7.12502
rthumb 5.68977 -56.5076
lclavicle -1.2921e-015 -4.57205e-015
lhumerus -20.8737 -7.70991 91.2318
lradius 21.2235
lwrist 8.21512
lhand -25.9323 -5.04449
lfingers 7.12502
lthumb 0.611094 24.9344
rfemur -14.8712 -2.95164 19.7756
rtibia 19.8725
rfoot -11.1855 -3.17071
rtoes 16.3197
lfemur -13.3517 6.57633 -17.4791
ltibia 15.6629
lfoot -8.2359 0.772148
ltoes 5.77165
505
root 0.196179 17.8302 -2.03227 7.53372 0.62944 -1.20628
lowerback -2.22074 -0.725952 -0.15798
upperback 3.0142 -1.029 1.68694
thorax 4.38699 -0.547104 1.76819
lowerneck -10.7426 0.660688 -1.53911
upperneck 39.7088 1.03858 0.944052
head 15.8571 0.328886 0.852223
rclavicle 1.42131e-014 -2.20651e-014
rhumerus -25.8407 -17.3528 -80.1638
rradius 23.1006
rwrist 33.6071
rhand -20.6922 -26.6138
rfingers 7.12502
rthumb 5.67154 -56.5179
lclavicle 1.42131e-014 -2.20651e-014
lhumerus -20.7795 -7.66816 91.174
lradius 21.2263
lwrist 8.2055
lhand -25.9458 -5.02273
lfingers 7.12502
lthumb 0.598136 24.9562
rfemur -14.8629 -2.94808 19.7907
rtibia 19.8783
rfoot -11.1937 -3.16217
rtoes 16.3143
lfemur -13.3462 6.55812 -17.4588
ltibia 15.6824
lfoot -8.2421 0.816218
ltoes 5.74128
506
root 0.193793 17.8294 -2.03329 7.51468 0.61489 -1.21249
lowerback -2.21957 -0.725454 -0.166623
upperback 3.01052 -1.0279 1.68696
thorax 4.38262 -0.546814 1.77314
lowerneck -10.738 0.657457 -1.54942
upperneck 39.7212 1.03209 0.954676
head 15.8624 0.325822 0.857731
rclavicle -7.45443e-015 -1.98785e-016
rhumerus -25.8024 -17.283 -80.2109
rradius 23.152
rwrist 33.5033
rhand -20.7063 -26.6257
rfingers 7.12502
rthumb 5.65789 -56.5302
lclavicle -7.45443e-015 -1.98785e-016
lhumerus -20.6916 -7.61269 91.1137
lradius 21.2241
lwrist 8.19696
lhand -25.9507 -4.98573
lfingers 7.12502
lthumb 0.59339 24.9932
rfemur -14.8517 -2.93813 19.8036
rtibia 19.8869
rfoot -11.2028 -3.15628
rtoes 16.3138
lfemur -13.333 6.54028 -17.4396
ltibia 15.6974
lfoot -8.24647 0.8609
ltoes 5.71836
507
root 0.191543 17.8287 -2.03395 7.49343 0.598845 -1.21256
lowerback -2.21918 -0.724763 -0.180574
upperback 3.00814 -1.02625 1.68441
thorax 4.38007 -0.546384 1.77845
lowerneck -10.7362 0.651894 -1.56395
upperneck 39.7317 1.02289 0.966331
head 15.8674 0.321138 0.864013
rclavicle 8.39865e-015 -5.1684e-015
rhumerus -25.7692 -17.2164 -80.2576
rradius 23.2043
rwrist 33.4049
rhand -20.7213 -26.6319
rfingers 7.12502
rthumb 5.64346 -56.5367
lclavicle 8.39865e-015 -5.1684e-015
lhumerus -20.6074 -7.54489 91.051
lradius 21.2173
lwrist 8.18645
lhand -25.9595 -4.94216
lfingers 7.12502
lthumb 0.584823 25.0368
rfemur -14.8379 -2.93079 19.8088
rtibia 19.8981
rfoot -11.2125 -3.1455
rtoes 16.318
lfemur -13.3127 6.52649 -17.4279
ltibia 15.7074
lfoot -8.25167 0.901193
ltoes 5.70203
508
root 0.189363 17.8281 -2.03449 7.47371 0.581037 -1.20938
lowerback -2.22265 -0.723741 -0.197377
upperback 3.00738 -1.02401 1.68005
thorax 4.3814 -0.545748 1.78348
lowerneck -10.7352 0.643749 -1.57925
upperneck 39.7359 1.01081 0.975824
head 15.8694 0.314884 0.868961
rclavicle -4.27387e-015 6.16232e-015
rhumerus -25.7356 -17.1568 -80.3046
rradius 23.2538
rwrist 33.3166
rhand -20.7324 -26.6365
rfingers 7.12502
rthumb 5.63268 -56.5417
lclavicle -4.27387e-015 6.16232e-015
lhumerus -20.5241 -7.46419 90.9849
lradius 21.2071
lwrist 8.17089
lhand -25.9701 -4.89361
lfingers 7.12502
lthumb 0.57462 25.0854
rfemur -14.8267 -2.92347 19.81
rtibia 19.9112
rfoot -11.2216 -3.13247
rtoes 16.3263
lfemur -13.291 6.5172 -17.4207
ltibia 15.7124
lfoot -8.25528 0.937131
ltoes 5.68029
